<?xml version="1.0" encoding="UTF-8" standalone="no"?>
<!-- Created with Inkscape (http://www.inkscape.org/) -->

<svg
   xmlns:dc="http://purl.org/dc/elements/1.1/"
   xmlns:cc="http://creativecommons.org/ns#"
   xmlns:rdf="http://www.w3.org/1999/02/22-rdf-syntax-ns#"
   xmlns:svg="http://www.w3.org/2000/svg"
   xmlns="http://www.w3.org/2000/svg"
   xmlns:sodipodi="http://sodipodi.sourceforge.net/DTD/sodipodi-0.dtd"
   xmlns:inkscape="http://www.inkscape.org/namespaces/inkscape"
   width="210mm"
   height="297mm"
   id="svg2"
   version="1.1"
   inkscape:version="0.48.4 r9939"
   sodipodi:docname="wappen.svg"
   inkscape:export-filename="/home/spuelrich/work/augsburg.pm/wappen.png"
   inkscape:export-xdpi="83.75"
   inkscape:export-ydpi="83.75">
  <defs
     id="defs4" />
  <sodipodi:namedview
     id="base"
     pagecolor="#ffffff"
     bordercolor="#666666"
     borderopacity="1.0"
     inkscape:pageopacity="0.0"
     inkscape:pageshadow="2"
     inkscape:zoom="0.98994949"
     inkscape:cx="476.25525"
     inkscape:cy="356.63676"
     inkscape:document-units="px"
     inkscape:current-layer="g2260"
     showgrid="false"
     inkscape:window-width="1440"
     inkscape:window-height="900"
     inkscape:window-x="0"
     inkscape:window-y="0"
     inkscape:window-maximized="0" />
  <metadata
     id="metadata7">
    <rdf:RDF>
      <cc:Work
         rdf:about="">
        <dc:format>image/svg+xml</dc:format>
        <dc:type
           rdf:resource="http://purl.org/dc/dcmitype/StillImage" />
        <dc:title></dc:title>
      </cc:Work>
    </rdf:RDF>
  </metadata>
  <g
     inkscape:groupmode="layer"
     id="layer2"
     inkscape:label="wappen">
    <g
       id="g2260"
       transform="translate(341.0788,556.18696)">
      <path
         id="path2164"
         style="fill:#ef301f;fill-opacity:1"
         d="M 98.97102,253.33071 C 87.98006,252.03157 76.08869,248.35088 64.52053,242.66736 54.11732,237.55619 52.19663,236.1576 43.52052,227.37587 38.26829,222.05968 32.54524,215.70836 30.80263,213.26182 19.56992,197.49162 13.5456,180.6707 8.79527,151.81356 c -1.40102,-8.51088 -1.79771,-16.31768 -1.75306,-34.5 0.05684,-23.143516 0.42084,-27.477006 5.5019,-65.499996 1.94774,-14.57553 9.01946,-44.5 10.51618,-44.5 0.27753,0 5.54598,0.88251 11.70766,1.96114 30.36154,5.3149 91.44983,6.76692 128.20307,3.04728 11,-1.11326 25.175,-2.88447 31.5,-3.93603 6.325,-1.05155 11.78644,-1.61052 12.13654,-1.24215 1.82387,1.91907 9.24707,37.86347 12.52945,60.66976 3.31848,23.05714 3.78046,58.474136 1.02396,78.499996 -6.79302,49.35084 -26.56588,81.22793 -60.68995,97.84214 -15.43373,7.51433 -41.32755,11.4412 -60.5,9.17501 z"
         inkscape:connector-curvature="0" />
      <path
         id="path1929"
         style="fill:#ffffff;fill-opacity:1"
         d="m 138.77361,249.67663 c 8.82236,-2.00651 23.46983,-7.93408 30.19741,-12.22038 15.07807,-9.60657 28.04392,-24.51611 35.61976,-40.95945 10.59004,-22.98566 14.71242,-43.73585 15.53245,-78.18324 0.5507,-23.133126 0.37955,-26.067946 -3.14909,-53.999996 -2.18543,-17.2995 -9.29957,-51.47053 -11.42713,-54.88743 -0.73191,-1.17546 -2.13501,-1.1313 -9.18431,0.28911 -14.11342,2.84379 -55.71744,6.5044 -74.64168,6.56748 l -9.25,0.03084 0,3.42904 c 0,0 -8.12987,-1.929807 -9.53571,11.754915 -2.06991,20.1489 -3.394946,17.63383 -27.735943,37.858549 -12.032968,9.998088 -23.58549,20.771827 -23.58549,35.150022 1.955463,28.48422 20.510402,37.88324 39.928572,46.7417 l 5.714285,4.03288 3.214286,4.03289 -4.04216,0 c -4.60453,0 -17.03098,-2.37243 -24.4969,-4.67688 l -5.03905,-1.55538 -9.17475,6.36613 c -5.04612,3.50137 -9.19104,6.70237 -9.21095,7.11332 -0.0199,0.41096 1.97391,3.47772 4.4307,6.81503 2.61398,3.55084 4.69275,7.59639 5.0114,9.75281 1.06316,7.19489 2.66176,12.68224 4.18498,14.36538 2.33706,2.58242 6.85253,3.20762 10.39681,1.43951 3.07026,-1.53165 3.08065,-1.52735 4.49517,1.85806 2.50766,6.00168 6.20384,21.80215 6.90603,29.52202 1.09137,11.99834 -0.27963,11 15.10611,11 l 13.43261,0 0,5 0,5 9.55259,0 c 5.25393,0 12.79143,-0.73662 16.75,-1.63693 z"
         inkscape:connector-curvature="0"
         sodipodi:nodetypes="ssssssssccssccccsscscssssssscccss" />
      <path
         id="path2258"
         style="fill:#00603f;fill-opacity:1"
         d="m 90.485123,237.951 c 0,-0.20436 2.025,-5.03671 4.5,-10.73857 2.475,-5.70185 4.52307,-10.59715 4.55126,-10.87844 0.06913,-0.68977 10.832467,20.28735 10.897477,21.23857 0.0282,0.4125 -4.44874,0.75 -9.94874,0.75 -5.499997,0 -9.999997,-0.1672 -9.999997,-0.37156 z"
         inkscape:connector-curvature="0" />
      <path
         id="path2256"
         style="fill:#00603f;fill-opacity:1"
         d="m 121.70694,227.32256 c 2.80735,-6.05 5.38951,-11 5.73813,-11 0.62516,0 9.0487,19.79436 9.04299,21.25 -0.002,0.4125 -4.47649,0.75 -9.94416,0.75 l -9.94122,0 5.10426,-11 z"
         inkscape:connector-curvature="0" />
      <path
         id="path2254"
         style="fill:#00603f;fill-opacity:1"
         d="m 107.09744,223.21398 -5.76458,-12.10857 6.23702,-14.47963 c 3.72449,-8.64664 6.51012,-13.94054 6.91496,-13.14142 0.37287,0.73601 3.03527,7.1882 5.91646,14.3382 l 5.23851,13 -5.76299,12.25 c -3.16965,6.7375 -6.04466,12.25 -6.3889,12.25 -0.34425,0 -3.21997,-5.44886 -6.39048,-12.10858 z"
         inkscape:connector-curvature="0" />
      <path
         id="path2252"
         style="fill:#00603f;fill-opacity:1"
         d="m 88.098583,232.30414 c -0.27583,-0.81487 -1.23662,-5.30658 -2.13508,-9.98158 -2.34976,-12.22647 -4.36227,-19.82682 -6.68315,-25.23919 l -2.03222,-4.73919 -2.95823,2.48919 c -3.72975,3.13838 -6.23721,3.14767 -9.35023,0.0346 -4.28167,-4.28166 -3.01265,-11.17124 2.59145,-14.06924 7.8681,-4.06875 16.90213,4.17987 26.99206,24.64542 l 3.2646,6.62163 -4.59385,10.85995 c -2.52662,5.97297 -4.81952,10.19324 -5.09535,9.37837 z"
         inkscape:connector-curvature="0" />
      <path
         id="path2250"
         style="fill:#00603f;fill-opacity:1"
         d="m 134.08752,222.43556 -4.81668,-11.38701 2.24008,-4.11299 c 7.8668,-14.44417 15.90521,-25.0447 20.10043,-26.50716 5.07608,-1.76953 7.81913,-1.31433 10.95069,1.81724 3.99514,3.99514 4.12788,9.98407 0.28822,13.00434 -3.37335,2.65348 -4.29729,2.60785 -8.77909,-0.43359 l -3.69305,-2.50617 -1.92534,4.35255 c -2.04327,4.61914 -4.76733,14.70784 -7.73846,28.65979 l -1.81012,8.5 -4.81668,-11.387 z"
         inkscape:connector-curvature="0" />
      <path
         id="path2248"
         style="fill:#00603f;fill-opacity:1"
         d="m 95.964413,201.57256 c -9.52904,-16.69751 -16.08069,-24.25 -21.03645,-24.25 -0.79356,0 -1.44284,-0.73125 -1.44284,-1.625 0,-1.31049 0.62903,-1.4893 3.25,-0.92387 11.17537,2.41087 19.26346,3.48338 26.499997,3.51398 4.5375,0.0192 8.25,0.29616 8.25,0.61549 0,1.48731 -11.41206,27.4194 -12.066587,27.4194 -0.40885,0 -1.96321,-2.1375 -3.45412,-4.75 z"
         inkscape:connector-curvature="0" />
      <path
         id="path2246"
         style="fill:#00603f;fill-opacity:1"
         d="m 126.56196,204.07256 c -0.48051,-1.2375 -2.94437,-7.28539 -5.47525,-13.43976 -2.53087,-6.15437 -4.60159,-11.37546 -4.60159,-11.6024 0,-0.22695 4.28747,-0.71402 9.5277,-1.08237 8.58715,-0.60362 20.22519,-2.4709 26.2223,-4.20728 3.73079,-1.0802 2.59103,1.36718 -1.64255,3.52699 -5.05278,2.57774 -9.96048,8.3581 -16.81488,19.80482 -3.04644,5.0875 -5.71968,9.25 -5.94053,9.25 -0.22085,0 -0.79469,-1.0125 -1.2752,-2.25 z"
         inkscape:connector-curvature="0" />
      <path
         id="path2244"
         style="fill:#00603f;fill-opacity:1"
         d="m 56.563273,172.78185 c -1.79349,-2.49738 -3.05138,-5.08488 -2.79531,-5.75 0.55961,-1.45352 11.58392,-9.17586 12.20817,-8.55161 0.24082,0.24081 1.07943,3.18806 1.86359,6.54944 l 1.42573,6.11159 -4.30364,3.09065 c -2.367,1.69985 -4.4913,3.09064 -4.72065,3.09064 -0.22935,0 -1.8844,-2.04332 -3.67789,-4.54071 z"
         inkscape:connector-curvature="0" />
      <path
         id="path2242"
         style="fill:#00603f;fill-opacity:1"
         d="m 163.10417,173.75786 c -2.54048,-1.9398 -4.61905,-3.77454 -4.61905,-4.0772 0,-0.78218 3.18736,-11.79258 3.52524,-12.17758 0.22167,-0.25257 11.82311,7.89132 13.346,9.36852 0.20418,0.19806 -1.42975,2.62204 -3.63095,5.38663 l -4.00218,5.02654 -4.61906,-3.52691 z"
         inkscape:connector-curvature="0" />
      <path
         id="path2240"
         style="fill:#00603f;fill-opacity:1"
         d="m 93.485123,174.70373 c -6.7174,-1.02734 -18.82479,-3.65485 -19.89817,-4.31823 -1.19713,-0.73987 -4.57969,-11.91842 -3.83252,-12.66558 0.21328,-0.21328 3.95244,0.51164 8.30924,1.61093 20.37732,5.14152 56.600157,4.67998 75.414847,-0.96092 1.92137,-0.57605 3.78362,-1.04737 4.13833,-1.04737 0.35472,0 -0.0231,2.65202 -0.8396,5.89337 l -1.48455,5.89337 -5.4194,1.70461 c -9.89094,3.11109 -19.70888,4.24447 -36.88818,4.25839 -9.35,0.008 -18.124997,-0.15828 -19.499997,-0.36857 z"
         inkscape:connector-curvature="0" />
    </g>
  </g>
  <g
     inkscape:label="Ebene 1"
     inkscape:groupmode="layer"
     id="layer1">
    <path
       style="fill:#00603f;fill-opacity:1"
       d="m 440.56597,711.12953 c -1.65871,-2.34379 -7.28796,-6.13257 -12.50941,-8.41954 -11.81387,-5.17436 -26.44476,-18.78181 -30.33516,-28.21319 -6.19895,-15.02792 0.35953,-32.74954 16.67499,-45.05735 5.41341,-4.08369 14.12203,-11.03326 19.35248,-15.4435 8.92122,-7.52225 9.5837,-8.6225 10.70203,-17.77412 0.65567,-5.36555 1.88846,-10.15397 2.73956,-10.64096 0.85108,-0.48701 1.54743,-2.38105 1.54743,-4.209 0,-2.27377 0.9851,-3.15071 3.11875,-2.77637 2.1649,0.37984 3.28545,2.39701 3.66378,6.5953 0.29976,3.32646 1.7032,6.93802 3.11875,8.02568 1.41554,1.08768 2.57819,2.81478 2.58366,3.83804 0.005,1.02322 0.83276,4.60334 1.83846,7.95578 1.50283,5.00967 4.11982,7.49625 14.69273,13.96052 14.11879,8.63219 25.4154,18.67387 30.2401,26.8807 4.20408,7.15116 4.0881,23.52698 -0.22895,32.32601 -4.96492,10.11952 -20.43331,21.84464 -34.3708,26.05326 -1.63171,0.49271 -4.04495,2.9853 -5.36274,5.53905 -2.19551,4.25472 -3.31865,4.68415 -13.4229,5.13216 -10.16824,0.45088 -11.26173,0.15708 -14.04276,-3.77247 z m 15.30049,-4.14134 c 0,-2.72246 -0.80196,-4.94992 -1.78214,-4.94992 -0.98018,0 -1.78214,2.22746 -1.78214,4.94992 0,2.72246 0.80196,4.94992 1.78214,4.94992 0.98018,0 1.78214,-2.22746 1.78214,-4.94992 z m -7.74355,0.75383 c 1.60395,-3.86981 -0.12742,-4.32419 -2.58633,-0.67879 -1.37681,2.04114 -1.49508,3.22491 -0.32214,3.22491 1.01924,0 2.32806,-1.14576 2.90847,-2.54612 z m 14.50915,-0.67879 c -2.45896,-3.6454 -4.19028,-3.19102 -2.58633,0.67879 0.58041,1.40036 1.88923,2.54612 2.90847,2.54612 1.17292,0 1.05468,-1.18377 -0.32214,-3.22491 z M 438.847,700.67472 c -0.93116,-0.74995 -5.84391,-4.11399 -10.91718,-7.47564 -16.57808,-10.98491 -22.76769,-29.61304 -14.86291,-44.7311 1.94487,-3.71963 10.00637,-13.28877 17.91445,-21.26476 16.03413,-16.17181 17.85885,-19.34354 17.52286,-30.45816 l -0.23366,-7.72995 -1.35018,9.81427 c -1.21387,8.82335 -2.14866,10.48925 -9.25848,16.49973 -4.34955,3.67699 -12.39206,9.7896 -17.87225,13.58357 -13.87503,9.60575 -20.10547,19.83845 -19.91097,32.70125 0.24615,16.27899 9.17668,28.38468 26.85507,36.40315 8.48914,3.85044 15.50569,5.38988 12.11325,2.65764 z m 38.63307,-0.97457 c 18.92273,-7.36217 30.06852,-21.55878 30.06852,-38.29891 0,-15.39888 -6.72691,-23.50927 -32.56207,-39.25898 -12.53276,-7.64026 -15.55577,-11.40491 -15.55577,-19.37214 0,-3.37445 -0.80197,-6.59426 -1.78214,-7.15512 -1.1335,-0.64859 -1.78215,3.97158 -1.78215,12.69375 0,9.09057 -1.49482,19.27442 -4.43429,30.2094 -4.9823,18.53458 -5.56094,30.72816 -2.0392,42.97157 3.22196,11.20122 5.97335,15.59863 9.75985,15.59863 1.73854,0 4.71769,1.09012 6.62034,2.42249 4.31893,3.0244 4.4159,3.02597 11.70691,0.18931 z m -2.01004,-4.00169 c 0,-0.8283 1.26156,-2.47535 2.80347,-3.66011 4.06296,-3.1219 9.30057,-13.2795 11.47113,-22.24674 3.15416,-13.03067 -1.16778,-23.13964 -16.12623,-37.71913 -6.82304,-6.65017 -12.40551,-12.60603 -12.40551,-13.23524 0,-1.18057 14.17685,9.15133 24.66063,17.97229 16.77662,14.11574 17.59954,34.57803 2.05003,50.97452 -6.12171,6.45518 -12.45352,10.47913 -12.45352,7.91441 z m -32.98377,-7.82222 c -11.90339,-18.3015 -11.7457,-31.44372 0.62621,-52.19397 9.01413,-15.11851 11.08669,-24.43219 9.28327,-41.71724 l -1.37717,-13.19979 -0.24927,14.86064 c -0.32934,19.63411 -1.56274,22.96374 -14.71504,39.72363 -10.08826,12.85544 -11.24785,15.16949 -11.92135,23.79011 -0.989,12.65878 2.05021,20.43323 11.73528,30.01948 10.95314,10.84134 14.10619,10.23016 6.61807,-1.28286 z"
       id="path3018"
       inkscape:connector-curvature="0" />
  </g>
</svg>
